<svg xmlns="http://www.w3.org/2000/svg" xmlns:xlink="http://www.w3.org/1999/xlink" viewBox="0 0 263 263"><defs><style>.cls-1{isolation:isolate;}.cls-2{fill:url(#radial-gradient);}.cls-3{mix-blend-mode:overlay;}.cls-4{fill:url(#linear-gradient);}</style><radialGradient id="radial-gradient" cx="131.5" cy="131.5" fx="167.7453100178199" fy="34.2201400134457" r="150.61" gradientUnits="userSpaceOnUse"><stop offset="0.18" stop-color="#fdc695"/><stop offset="0.22" stop-color="#fdc18b"/><stop offset="0.29" stop-color="#fdb470"/><stop offset="0.31" stop-color="#fdb069"/><stop offset="0.36" stop-color="#fca66f"/><stop offset="0.46" stop-color="#f98b7e"/><stop offset="0.58" stop-color="#f46096"/><stop offset="0.61" stop-color="#f3549d"/><stop offset="0.82" stop-color="#d933b8"/><stop offset="0.89" stop-color="#e13db0"/><stop offset="1" stop-color="#f3549d"/></radialGradient><linearGradient id="linear-gradient" x1="135.87" y1="200.42" x2="135.87" y2="80.45" gradientUnits="userSpaceOnUse"><stop offset="0.3" stop-opacity="0.22"/><stop offset="0.93" stop-opacity="0.7"/></linearGradient></defs><title>Asset 3</title><g class="cls-1"><g id="Layer_2" data-name="Layer 2"><g id="Layer_1-2" data-name="Layer 1"><circle class="cls-2" cx="131.5" cy="131.5" r="131.5"/><g class="cls-3"><path class="cls-4" d="M162.4,80.45l-31.18,46.19.16.17a29.38,29.38,0,0,1,12.41-2.45c19.59,0,36.07,15.18,36.07,36.72,0,22.69-18.77,39.34-44.07,39.34-24.48,0-43.91-15.34-43.91-41.29,0-13.06,4.41-24,14.69-39.5L132.2,80.45Zm-26.12,98.26c9.79,0,18-7,18-17.14,0-9.63-7.35-17.3-17.8-17.3-10,0-18,7-18,16.81A17.48,17.48,0,0,0,136.28,178.71Z"/></g></g></g></g></svg>